<?xml version="1.0" encoding="UTF-8"?>
<svg xmlns="http://www.w3.org/2000/svg" version="1.1" viewBox="0 0 500 500">
  <defs>
    <style>
      .cls-1 {
        fill: #191919;
      }
    </style>
  </defs>
  <!-- Generator: Adobe Illustrator 28.7.10, SVG Export Plug-In . SVG Version: 1.2.0 Build 236)  -->
  <g>
    <g id="Layer_1">
      <g>
        <path class="cls-1" d="M409.36,161.44c-1.62-8.48-13.98-72.37-70.15-71.82-56.17.56-81.66,69.52-81.66,69.52,0,0-1.23-1.67-1.95-5.38-8.34-43.01,5.19-66.92,5.19-66.92h-20.76c-11.49,28.18-2.87,71.55-2.87,71.55,0,0-3.29-2.21-5.28-3.71-106.03-79.71-142.81,21.45-145.7,49.49-1.32,12.75-1.85,23.91,0,42.82,11.85,121.24,69.96,155.68,83.64,161.99,7.01,3.23,15.36,3.94,20.92,4.12,4.09.13,9.05,0,13.34-.94,31.27-6.88,45.05-46.99,45.05-46.99,0,0,1.69-3.99,2.78.28,10.44,40.95,28.75,41.84,43.93,44.63,9.08,1.67,25.03-1.25,25.03-1.25,53.88-8.59,76.23-72.54,84.77-109.89,3.24-14.17,6.21-32.56,7.42-43.18,3.29-28.97,2.68-60.99-3.69-94.32ZM382.11,214.01c-.37,31.88-2.15,35.93-3.39,47.83-3.04,29.15-21.14,91.76-53.04,104.55-15.2,6.1-26.22,4.61-34.85,3.41-15.66-2.16-28.5-19.05-36.89-53.74,0,0-19.05,45.09-37.63,49.22-6.67,1.48-20.88-.36-25.95-2.67-14.64-6.67-58.21-44.78-68.96-110.91-4.28-26.35-1.97-45.06.37-55.11,3.05-13.08,11.86-49.68,52.65-38.56,28.83,7.86,62.66,39.67,83.88,85.18,0,0,35.92-115.26,76.65-112.24,40.04,2.97,47.53,51.16,47.16,83.05Z"/>
        <path class="cls-1" d="M182.39,241.44c18.07-26.14,35.59,24.33,35.59,24.33,0,0-53.6,1.71-35.59-24.33Z"/>
        <path class="cls-1" d="M304.99,218.33c24.21,19.78-23.59,29.24-23.59,29.24,0,0-3.83-51.64,23.59-29.24Z"/>
        <path class="cls-1" d="M312.53,303.81c-24.16,24.24-25.71-30.56-25.71-30.56,0,0,53.08,3.1,25.71,30.56Z"/>
        <path class="cls-1" d="M190.25,321c-26.5-18.66,23.77-35.97,23.77-35.97,0,0,5.95,56.9-23.77,35.97Z"/>
        <path class="cls-1" d="M239.32,275.34c6.86-5.11,13.09-11.64,15.58-19.83l.89-2.94,5.49,6.66c3.59,4.36,7.75,8.23,12.36,11.5l3.56,2.53-.13.14c-7.43,8.08-13,17.67-16.34,28.13l-.22.68-2.28-2.95c-5.73-7.4-13-13.47-21.3-17.79l-4.22-2.2s2.22-.66,6.6-3.92Z"/>
      </g>
    </g>
  </g>
</svg>