<?xml version="1.0" encoding="UTF-8"?>
<svg id="Layer_1" xmlns="http://www.w3.org/2000/svg" version="1.1" viewBox="0 0 1000 1000">
  <!-- Generator: Adobe Illustrator 29.5.1, SVG Export Plug-In . SVG Version: 2.1.0 Build 141)  -->
  <defs>
    <style>
      .st0 {
        fill: #191919;
      }
    </style>
  </defs>
  <path class="st0" d="M717.96,685.85s2.44-163.89.67-221.13c-.35-11.26-7.97-25.62-28.14-25.46-20.31.16-31.34.28-36.83.46-5.46.18-10.86,1.43-15.72,3.93-6.56,3.38-10.59,8.01-13.52,20.74-3.19,13.85-6.78,68.29-9.65,90.12-1.02,7.74-.49,23.67-20.81,23.29-17.87-.34-15.04-18.89-14.7-27.31.29-7.21,19.42-369.71,19.42-369.71,0,0,2.35-33.34-28.13-32.56-35.91.91-98.8.79-132.68,0-12.8-.3-38.49-1.67-34.84,32.83,3.96,37.47,15.89,308.59,18.72,369.73.28,6.06,2.01,26.84-16.75,27.14-17.42.28-18.4-16.96-19.1-23.12-2.83-24.84-3.45-66.03-8.29-90.16-3.77-18.79-15.16-24.04-25.88-24.04s-33.14-.5-46.57-.34c-8.44.11-20.69,2.26-23.37,24.37-2.68,22.11.58,165.91,1.3,221.21.1,7.79.11,18.7,13.4,28.14,14.62,10.39,124.11,91.58,177.47,129.15,16.86,11.87,39.41,11.63,56.02-.59,0,0,174.47-127.93,176.16-129.23,11.5-8.82,11.84-27.47,11.84-27.47Z"/>
</svg>