<?xml version="1.0" encoding="UTF-8"?>
<svg xmlns="http://www.w3.org/2000/svg" version="1.1" viewBox="0 0 600 200">
  <defs>
    <style>
      .cls-1 {
        fill: #191919;
      }
    </style>
  </defs>
  <!-- Generator: Adobe Illustrator 28.7.10, SVG Export Plug-In . SVG Version: 1.2.0 Build 236)  -->
  <g>
    <g id="Layer_1">
      <g id="Layer_1-2" data-name="Layer_1">
        <g>
          <path class="cls-1" d="M8,96.2V13.9h78.4c.7,2.8,1.1,5.5,1.1,8.3s-.4,5.5-1.1,8.3H30.3c-2.9,0-5.2.4-6.9,1.2-1.6.8-2.8,1.9-3.4,3.2-.6,1.4-1,2.9-1,4.7v56.7H8ZM8,128.9v-57.8h11v57.8H8ZM19,103.8v56.7c0,1.7.3,3.3,1,4.7.6,1.4,1.8,2.4,3.4,3.2s3.9,1.2,6.9,1.2h56.2c.7,2.8,1.1,5.5,1.1,8.3s-.4,5.5-1.1,8.3H8v-82.3h11ZM79,91.3v-15.8c0-1.2.2-2.2.6-3.2.4-.9.9-1.6,1.7-2.1s1.9-.8,3.2-.8h-.1c1.5,0,2.6.2,3.4.8.8.5,1.4,1.2,1.7,2.1.3.9.5,2,.5,3.2v48.4c0,1.2-.2,2.2-.5,3.2-.3.9-.9,1.6-1.7,2.1s-2,.8-3.4.8h.1c-1.4,0-2.4-.2-3.2-.8-.8-.5-1.3-1.2-1.7-2.1-.4-.9-.6-2-.6-3.2v-32.7ZM153.6,96.2v-13.8c0-7-.8-13.2-2.5-18.8-1.6-5.5-4.1-10.4-7.3-14.5-3.2-4.1-7.2-7.6-11.9-10.4-4.7-2.8-10.1-4.9-16.2-6.3-6.1-1.4-12.8-2.1-20.2-2.1h-9.4V13.9h78.4v82.3h-11ZM164.6,103.8v82.3h-78.4v-16.5h9.4c7.3,0,14.1-.7,20.2-2.1,6.1-1.4,11.5-3.5,16.2-6.3,4.7-2.8,8.7-6.3,11.9-10.4,3.2-4.1,5.6-9,7.3-14.5s2.5-11.8,2.5-18.8v-13.8h11ZM164.6,153.7h-11V51.8h11v101.8Z"/>
          <path class="cls-1" d="M153.9,96.2V13.9h78.4c.7,2.8,1.1,5.5,1.1,8.3s-.4,5.5-1.1,8.3h-25.9c-5.3,0-10.2.5-14.5,1.5-4.4,1-8.2,2.5-11.6,4.5-3.4,2-6.2,4.6-8.5,7.6-2.3,3.1-4,6.7-5.2,10.7s-1.8,8.7-1.8,13.8v27.5h-11ZM153.9,128.9v-57.8h11v57.8h-11ZM164.9,103.8v56.7c0,1.7.3,3.3,1,4.7.6,1.4,1.8,2.4,3.4,3.2,1.6.8,3.9,1.2,6.9,1.2h56.2c.7,2.8,1.1,5.5,1.1,8.3s-.4,5.5-1.1,8.3h-78.4v-82.3h11,0ZM235.6,135.9c.8.5,1.4,1.2,1.7,2.1s.5,2,.5,3.2v18.7c0,1.5.2,2.7.5,3.8.3,1.1.8,1.9,1.3,2.7.6.7,1.2,1.3,2.1,1.8.8.5,1.8.8,2.8,1,1.1.2,2.2.3,3.5.3,0,.9-.3,1.7-1,2.5-.6.7-1.6,1.4-3,1.9-1.3.6-2.9,1-4.8,1.2-1.9.3-4.2.4-6.9.4s0,0,0,0c-2.7,0-5-.1-7-.4s-3.6-.7-4.9-1.2-2.2-1.2-2.8-1.9c-.6-.7-1-1.6-1-2.5,1.3,0,2.5-.1,3.6-.3s2.1-.6,2.9-1c.8-.5,1.5-1.1,2.1-1.8.6-.7,1-1.6,1.2-2.7.3-1.1.4-2.3.4-3.8v-18.7c0-1.2.2-2.3.6-3.2.4-1,.9-1.7,1.7-2.1s1.9-.7,3.2-.7q0,0,0,0c1.4,0,2.5.2,3.3.7h0ZM226.8,80.7v-6.3c0-1.8.4-3.3,1.2-4.4s2.2-1.7,4.3-1.7,3.6.6,4.3,1.7,1.2,2.6,1.2,4.4v25.6c0,1.8-.4,3.3-1.2,4.4s-2.2,1.7-4.3,1.7-3.6-.6-4.3-1.7-1.2-2.6-1.2-4.4c0,0,0-19.3,0-19.3ZM299.7,96.2v-27.5c0-5.1-.6-9.8-1.8-13.8-1.2-4.1-2.9-7.7-5.2-10.7s-5.1-5.6-8.5-7.6-7.2-3.5-11.6-4.5c-4.4-1-9.2-1.5-14.5-1.5h-25.9c-.6-2.8-1-5.5-1-8.3s.3-5.5,1-8.3h78.4v82.3h-11ZM310.7,103.8v82.3h-78.4c-.6-2.8-1-5.5-1-8.3s.3-5.5,1-8.3h56.1c2.9,0,5.2-.4,6.9-1.2s2.8-1.9,3.4-3.2c.6-1.4,1-2.9,1-4.7v-56.7h11ZM310.7,128.9h-11v-57.8h11v57.8Z"/>
          <path class="cls-1" d="M299.7,96.2V13.9h73.2c.7,2.8,1.1,5.5,1.1,8.3s-.4,5.5-1.1,8.3h-50.9c-4.4,0-7.4.9-9,2.6s-2.3,3.9-2.3,6.5v56.7h-11,0ZM299.7,128.9v-57.8h11v57.8h-11ZM367.1,186.1h-67.4v-76.5h11v50.9c0,1.7.3,3.3.9,4.7.6,1.4,1.7,2.4,3.2,3.2s3.9,1.2,6.9,1.2h39.9c3.5,0,6.2-.6,8.1-1.6,1.9-1.1,2.9-3.6,2.9-7.4v-22.8c0-1,0-1.9.2-2.6.1-.7.4-1.4.7-1.9.3-.6.8-1,1.3-1.3.5-.3,1.2-.6,2.1-.8.8-.2,1.8-.3,2.9-.3h46.8c1.9,0,3.5-.3,4.8-1,1.3-.7,2.2-1.6,2.8-2.9.6-1.2.9-2.7.9-4.3v-27h11v90.6h-79.1ZM435.1,96.2v-56.7c0-2.7-.8-4.8-2.3-6.5s-4.5-2.5-9-2.5h-50.9c-.6-2.8-1-5.5-1-8.3s.3-5.5,1-8.3h73.2v82.3h-11,0ZM380,77.7c.5-.8,1.2-1.4,2.1-1.7s2-.5,3.2-.5h38.5c1.7,0,3.2-.1,4.5-.3,1.2-.2,2.3-.6,3.1-1.1.8-.5,1.5-1.2,1.9-1.9s.8-1.7,1.1-2.9.5-2.4.7-3.9c.3,2.3.6,4.6.9,6.9s.9,5.2,1.9,8.7c-1.4,5.2-2.3,10.5-2.8,15.7-.2-1.6-.4-2.9-.7-4.1-.3-1.2-.6-2.1-1.1-2.9s-1.1-1.4-1.9-1.9c-.8-.5-1.9-.8-3.1-1-1.2-.2-2.7-.3-4.5-.3h-38.5c-1.2,0-2.3-.2-3.2-.6-1-.4-1.7-.9-2.1-1.7-.5-.8-.7-1.9-.7-3.2s.2-2.5.7-3.3h0Z"/>
          <path class="cls-1" d="M435.1,96.2V13.9h78.4c.7,2.8,1.1,5.5,1.1,8.3s-.4,5.5-1.1,8.3h-56.1c-2.9,0-5.2.4-6.9,1.2-1.6.8-2.8,1.9-3.4,3.2-.6,1.4-1,2.9-1,4.7v56.7h-11ZM435.1,73h11v35.5c0,2,.3,3.6.9,4.7.6,1.1,1.5,1.9,2.8,2.3s2.9.7,4.9.8c2,0,4.3.1,7.1.1s5.4,0,7.1-.1c1.7,0,2.9-.3,3.7-.6.8-.3,1.3-.9,1.6-1.8s.5-2,.8-3.5c.5-4.2.9-7.9,1.2-10.9s.7-6.2,1.1-9.2.8-6.7,1.2-10.9c.2-1.4.5-2.5,1-3.3.5-.8,1.1-1.4,1.9-1.9s1.8-.6,3-.6,1.9.2,2.7.6,1.4,1.1,1.8,1.9.6,1.9.5,3.2c-.3,4.5-.6,9.4-1.1,14.9s-.9,11-1.4,16.7-.9,11.2-1.4,16.6c-.5,5.4-.9,10.3-1.2,14.7-.4,4.4-.7,8.2-.9,11.1-.2,3-.3,4.9-.3,5.9,0,1.6.1,2.9.4,4.1s.7,2.1,1.2,3,1.2,1.5,2.1,2c.8.5,1.8.9,2.9,1.1,1.1.2,2.4.3,3.9.3h20.1c.7,2.8,1.1,5.5,1.1,8.3s-.4,5.5-1.1,8.3h-78.4v-113.1h0ZM581,96.2v-56.7c0-1.7-.3-3.3-1-4.7s-1.8-2.5-3.4-3.2c-1.7-.8-4-1.2-6.9-1.2h-56.1c-.6-2.8-1-5.5-1-8.3s.3-5.5,1-8.3h78.4v82.3h-11ZM592,186.1h-78.4c-.6-2.8-1-5.5-1-8.3s.3-5.5,1-8.3h20.1c1.5,0,2.8-.1,3.8-.3s2.1-.6,2.9-1.1c.8-.5,1.5-1.2,2.1-2,.5-.8,1-1.8,1.2-3,.3-1.1.4-2.5.4-4.1s-.1-2.9-.3-5.9c-.2-3-.5-6.7-.9-11.1-.4-4.4-.8-9.4-1.2-14.7-.5-5.4-.9-10.9-1.4-16.6s-.9-11.2-1.3-16.7c-.4-5.4-.8-10.4-1.2-14.9,0-1.3,0-2.4.5-3.2s1-1.5,1.8-1.9c.8-.4,1.7-.6,2.7-.6s2.2.2,3,.6,1.4,1,1.9,1.9c.5.8.8,1.9,1,3.3.5,4.2.9,7.9,1.2,10.9s.7,6.2,1.1,9.2.8,6.7,1.2,10.9c.3,1.5.6,2.6.9,3.5s.9,1.5,1.7,1.8,2,.5,3.7.6c1.7,0,4,.1,7,.1s5.1,0,7.1-.1c2,0,3.6-.4,4.9-.8s2.2-1.2,2.8-2.3c.6-1.1.9-2.7.9-4.7v-35.5h11v113.1h0Z"/>
        </g>
      </g>
    </g>
  </g>
</svg>