<?xml version="1.0" encoding="UTF-8"?>
<svg xmlns="http://www.w3.org/2000/svg" version="1.1" viewBox="0 0 500 500">
  <defs>
    <style>
      .cls-1 {
        fill: #191919;
      }
    </style>
  </defs>
  <!-- Generator: Adobe Illustrator 28.7.10, SVG Export Plug-In . SVG Version: 1.2.0 Build 236)  -->
  <g>
    <g id="Layer_1">
      <g>
        <path class="cls-1" d="M467.23,232.7c0-4.33-5.8-11.61-16.55-17.56-27.07-14.99-92.13-89.32-162.56-96.11-16.84-1.62-36.75-1.34-51.47,1.34-102.42,18.66-158.64,83.12-184.36,110.82-5.21,5.6,3.92,13.39,15.29,22.02,28.06,21.29,77.94,82.26,153.87,89.88,19.41,1.95,30.16,1.22,87.72.55,71.47-.84,109.7-60.59,141.64-89.13,3.8-3.4,16.42-16.41,16.42-21.8ZM261.68,265.15c-13.82,0-25.03-11.91-25.03-26.61s11.9-21.7,25.73-21.7,24.33,7,24.33,21.7-11.21,26.61-25.03,26.61Z"/>
        <path class="cls-1" d="M221.79,340.87s.51,31.32,0,41.74c-.6,12.26,1.36,21.04-8.48,20.19-5.5-.47-34.61-1.19-36.99.85-4.64,3.98-.36,20.55,11.2,21.72,16.8,1.7,12.83-3.87,46.66.68,16.39,2.21,18.83,1.37,18.83-6.28,0-8.65-.87-37.31,0-48.36.24-3.1.34-14.81.37-18.92,0-.8.65-1.45,1.46-1.46l31.58-.45c1.42-.02,2.59,1.11,2.62,2.53,0,0,1.26,44.27,1.3,59.03.02,8.09-.34,20.02,27.15,17.65,27.49-2.38,39.87-4.92,52.43-9.84,5.14-2.01,10.18-4.33,8.24-13.28s-13.84-10.3-22.65-7.69c-1.66.49-27.34,9.95-32.76,8.59s-3.05-23.42-3.39-28.51c-.34-5.09-.51-31.73-1.87-39.2-1.45-7.96-95.7,1.02-95.7,1.02Z"/>
        <path class="cls-1" d="M161.21,145.02c-10.14-3.83-28.25-29.06-31.22-33.56s6.08-12.46,14.85-9.75,32.24,32.66,38.68,33.06c5.62.35-16.51,12.44-22.31,10.25Z"/>
        <path class="cls-1" d="M258.44,118.93c-4.38-9.81-11.67-20.43-14.93-34.27-3.08-13.06,12.05-16.12,18.15-8.31,8.75,11.21,16.98,41.23,19.86,42.59,2.17,1.02-20.48,5.82-23.08,0Z"/>
        <path class="cls-1" d="M342.94,137.25c1.36-5.6,6.17-18.64,14.65-35.26,3.31-6.49,22.49-9.58,18.08,9.76-4.41,19.34-15.46,34.34-16.82,34.68s-16.84-5.37-15.91-9.18Z"/>
      </g>
    </g>
  </g>
</svg>