<?xml version="1.0" encoding="UTF-8"?>
<svg xmlns="http://www.w3.org/2000/svg" version="1.1" viewBox="0 0 500 500">
  <defs>
    <style>
      .cls-1 {
        fill: #191919;
      }
    </style>
  </defs>
  <!-- Generator: Adobe Illustrator 28.7.10, SVG Export Plug-In . SVG Version: 1.2.0 Build 236)  -->
  <g>
    <g id="Layer_1">
      <path class="cls-1" d="M313.35,258.67s-8.02-4.91.58-6.95c68.3-16.21,87.96-60.21,96.67-86.25,2.97-8.88,23.6-97.2-58.17-77.85-94.93,22.46-102.01,80.39-104.48,90.59-.35,1.45-2.55,2.97-5.79-1.16-13.17-16.79-55.95-67.72-100.72-81.62-89.94-27.91-49.78,92.61-32.42,115.77,34.43,45.9,69.08,52.93,70.76,54.12,3.62,2.56,3.1,7.08,0,7.38-30.1,2.89-72.38,36.92-89.86,89-17.94,53.45,54.99,53.45,76.41,44.57,74.37-30.82,69.19-83.38,70.04-85.09,1.16-2.32,4.43-2.46,5.21,0,3.34,10.5,21.8,72.93,111.72,91.84,55.41,11.65,61.07-28.03,61.06-38.49-.09-102.6-101-115.87-101-115.87ZM250.27,291.8c-10.65,0-19.28-10.21-19.28-22.8s8.63-22.8,19.28-22.8,19.28,10.21,19.28,22.8-8.63,22.8-19.28,22.8Z"/>
    </g>
  </g>
</svg>