<?xml version="1.0" encoding="UTF-8"?>
<svg id="Layer_1" xmlns="http://www.w3.org/2000/svg" version="1.1" viewBox="0 0 3676.29 2308.88">
  <!-- Generator: Adobe Illustrator 29.5.1, SVG Export Plug-In . SVG Version: 2.1.0 Build 141)  -->
  <defs>
    <style>
      .st0 {
        font-family: MaisonNeueExt-Light, 'Maison Neue Ext';
        font-size: 164.59px;
        font-weight: 300;
      }

      .st0, .st1 {
        fill: #fff;
      }

      .st2 {
        isolation: isolate;
      }

      .st3 {
        fill: #eb6b22;
      }
    </style>
  </defs>
  <path class="st3" d="M1292.01,1608.53l-18.4,85.7c-1,4.67-4.82,8.22-9.55,8.89-39.34,5.54-79.68,6.89-120.51,3.89-4.76-.35-8.8-3.63-10.12-8.22l-24.1-84.11c-1.21-4.22-4.74-7.37-9.07-8.09-2.77-.46-5.54-.94-8.31-1.51-12.58-2.5-24.93-5.54-37.05-9-4.16-1.19-8.63.11-11.53,3.32l-58.61,64.88c-3.2,3.55-8.28,4.71-12.71,2.93-37.89-15.26-73.5-34.29-106.46-56.66-3.95-2.68-5.81-7.55-4.66-12.18l21.16-84.84c1.05-4.2-.38-8.63-3.68-11.43-11.93-10.1-23.28-20.78-34.1-31.99-3-3.11-7.53-4.22-11.65-2.89l-83.23,26.86c-4.55,1.47-9.53-.06-12.47-3.82-24.82-31.73-46.23-66.06-63.83-102.36-2.09-4.3-1.27-9.45,2.05-12.89l60.72-62.89c3-3.11,4-7.65,2.53-11.71-5.27-14.64-9.82-29.58-13.64-44.77-1.05-4.19-4.41-7.4-8.64-8.3l-85.66-18.35c-4.67-1-8.23-4.82-8.89-9.55-5.54-39.34-6.89-79.69-3.9-120.49.35-4.76,3.63-8.81,8.22-10.13l84.09-24.1c4.21-1.21,7.36-4.72,8.08-9.04.47-2.79.96-5.57,1.52-8.37,2.51-12.58,5.53-24.89,8.98-37.01,1.18-4.16-.11-8.63-3.32-11.53l-64.87-58.6c-3.54-3.2-4.71-8.27-2.93-12.71,15.25-37.96,34.29-73.57,56.66-106.5,2.68-3.95,7.55-5.81,12.18-4.65l84.86,21.14c4.19,1.04,8.62-.38,11.41-3.67,10.11-11.91,20.81-23.27,32.01-34.07,3.12-3.01,4.23-7.53,2.9-11.65l-26.9-83.26c-1.47-4.55.06-9.54,3.83-12.48,31.73-24.8,66.05-46.2,102.34-63.8,4.3-2.09,9.45-1.27,12.89,2.05l62.87,60.72c3.12,3.01,7.68,3.99,11.75,2.52,14.62-5.27,29.54-9.81,44.69-13.61,4.2-1.05,7.44-4.4,8.35-8.64l18.41-85.71c1-4.67,4.82-8.22,9.55-8.89,39.32-5.53,79.67-6.9,120.5-3.88,4.76.35,8.8,3.63,10.12,8.22l24.12,84.1c1.21,4.21,4.72,7.35,9.04,8.08,2.78.47,5.57.95,8.37,1.51,12.56,2.51,24.89,5.52,37,8.97,4.16,1.18,8.63-.11,11.53-3.32h0c1.89-2.09,2.94-4.81,2.94-7.63v-292.43c0-6.29-5.1-11.38-11.38-11.38h-780.87c-6.29,0-11.38,5.1-11.38,11.38l.04,1548.13c0,6.29,5.1,11.38,11.38,11.38h780.86c6.29,0,11.38-5.1,11.38-11.38l-.04-321.65c0-7.55-7.22-13-14.49-10.94-4.67,1.33-9.36,2.59-14.08,3.78-4.18,1.06-7.39,4.41-8.29,8.63Z"/>
  <g class="st2">
    <g class="st2">
      <path class="st1" d="M1238.08,1431.62c-52.6,0-101.9-7.7-147.91-23.11-46.02-15.41-86.28-36.21-120.79-62.4-34.51-26.19-61.8-57-81.84-92.44-20.06-35.44-30.07-73.18-30.07-113.24s10.01-77.8,30.07-113.24c20.04-35.44,47.33-66.37,81.84-92.83,34.51-26.44,74.77-47.38,120.79-62.78,46-15.41,95.31-23.11,147.91-23.11,72.3,0,135.24,11.55,188.83,34.67,53.57,23.11,97.12,54.96,130.65,95.52,3.28,4.12,4.1,8.86,2.46,14.25-1.65,5.39-5.1,9.38-10.35,11.94l-118.32,59.32c-5.27,2.58-11.18,3.47-17.75,2.7-6.58-.77-12.17-3.2-16.76-7.32-20.38-19.51-43.23-35.17-68.53-46.99-25.31-11.81-55.39-17.72-90.22-17.72-24.99,0-48.49,3.98-70.5,11.94-22.03,7.97-41.26,18.62-57.68,31.97-16.44,13.36-29.43,28.89-38.95,46.61-9.54,17.72-14.3,36.09-14.3,55.08s4.76,38.01,14.3,55.46c9.52,17.47,22.51,32.74,38.95,45.84,16.42,13.1,35.65,23.63,57.68,31.58,22.02,7.97,45.51,11.94,70.5,11.94s49.63-3.59,73.95-10.78c24.31-7.19,43.71-18.99,58.18-35.44,3.28-4.1,3.61-7.82.99-11.17-2.63-3.33-7.24-5.01-13.8-5.01h-113.39c-6.58,0-12.17-1.79-16.76-5.39-4.61-3.59-6.9-7.96-6.9-13.1v-91.67c0-5.13,2.29-9.5,6.9-13.1,4.59-3.59,10.18-5.39,16.76-5.39h339.2c6.56,0,12.33,1.67,17.26,5.01,4.93,3.35,7.72,7.84,8.38,13.48,1.31,8.74,1.97,19.39,1.97,31.97s-.99,25.55-2.96,38.9c-4.61,35.44-17.43,68.31-38.46,98.6-21.04,30.31-48.16,56.5-81.35,78.58-33.2,22.09-71.16,39.42-113.89,52-42.74,12.58-88.1,18.87-136.07,18.87h-.02Z"/>
      <path class="st1" d="M1891.83,1019.28v31.99c0,5.08,2.29,9.4,6.9,12.95,4.59,3.56,10.18,5.33,16.76,5.33h266.23c6.56,0,12.16,1.8,16.76,5.39,4.59,3.6,6.9,7.97,6.9,13.1v107.85c0,5.14-2.31,9.51-6.9,13.1-4.61,3.6-10.2,5.39-16.76,5.39h-266.23c-6.58,0-12.17,1.81-16.76,5.39-4.61,3.6-6.9,7.97-6.9,13.1v170.25c0,5.14-2.3,9.51-6.87,13.1-4.58,3.6-10.14,5.39-16.67,5.39h-148.15c-6.55,0-12.11-1.79-16.69-5.39-4.58-3.59-6.86-7.96-6.86-13.1v-526.92c0-5.13,2.28-9.5,6.86-13.1,4.58-3.59,10.14-5.39,16.69-5.39h501.03c6.56,0,12.16,1.82,16.76,5.43,4.59,3.61,6.9,8,6.9,13.16v106.11c0,5.16-2.31,9.56-6.9,13.17-4.61,3.61-10.2,5.42-16.76,5.42h-305.67c-6.58,0-12.17,1.78-16.76,5.33-4.61,3.56-6.9,7.87-6.9,12.95h0Z"/>
      <path class="st1" d="M3145.07,876.97v526.14c0,5.14-2.3,9.51-6.87,13.1-4.58,3.6-10.14,5.39-16.67,5.39h-148.15c-6.55,0-12.11-1.79-16.69-5.39-4.58-3.59-6.86-7.96-6.86-13.1v-248.05c0-5.13-2.97-7.96-8.9-8.47-5.93-.5-10.88,1.29-14.82,5.39l-166.05,208.76c-3.3,4.12-8.57,6.16-15.81,6.16s-12.86-2.05-16.81-6.16l-166.04-208.76c-3.3-4.1-7.92-5.9-13.85-5.39-5.93.52-8.89,3.35-8.89,8.47v248.05c0,5.14-2.3,9.51-6.87,13.1-4.58,3.6-10.14,5.39-16.67,5.39h-148.15c-6.55,0-12.11-1.79-16.69-5.39-4.58-3.59-6.86-7.96-6.86-13.1v-526.14c0-5.13,2.28-9.5,6.87-13.1,4.58-3.59,10.14-5.39,16.67-5.39h137.37c6.53,0,13.4,1.54,20.6,4.62,7.19,3.08,12.43,6.68,15.7,10.78l189.78,217.24c3.94,4.12,8.57,6.16,13.83,6.16s9.55-2.05,12.85-6.16l189.78-217.24c3.91-4.1,9.48-7.7,16.67-10.78s14.07-4.62,20.61-4.62h137.37c6.53,0,12.08,1.81,16.67,5.39,4.58,3.6,6.87,7.97,6.87,13.1h0Z"/>
    </g>
  </g>
  <text class="st0" transform="translate(1457.23 1710.81)"><tspan x="0" y="0">INTERNATIONAL LTD</tspan></text>
</svg>